<?xml version="1.0" encoding="utf-8"?>
<svg xmlns="http://www.w3.org/2000/svg"
	xmlns:xlink="http://www.w3.org/1999/xlink"
	width="32px" height="32px" viewBox="0 0 32 32">
<path fillRule="evenodd" d="M 30.39 19.32C 30.39 19.32 27.33 19.93 27.33 19.93 27.17 20.38 26.99 20.81 26.79 21.22 26.79 21.22 28.53 23.83 28.53 23.83 29.05 24.62 28.95 25.68 28.28 26.35 28.28 26.35 26.35 28.27 26.35 28.27 25.96 28.66 25.45 28.86 24.94 28.86 24.55 28.86 24.17 28.75 23.83 28.52 23.83 28.52 21.22 26.79 21.22 26.79 20.81 26.99 20.38 27.17 19.94 27.33 19.94 27.33 19.32 30.39 19.32 30.39 19.13 31.33 18.31 32 17.36 32 17.36 32 14.64 32 14.64 32 13.69 32 12.87 31.33 12.68 30.39 12.68 30.39 12.07 27.33 12.07 27.33 11.62 27.17 11.19 26.99 10.78 26.79 10.78 26.79 8.17 28.52 8.17 28.52 7.83 28.75 7.45 28.86 7.06 28.86 6.55 28.86 6.04 28.66 5.65 28.27 5.65 28.27 3.72 26.35 3.72 26.35 3.05 25.68 2.95 24.62 3.47 23.83 3.47 23.83 5.21 21.22 5.21 21.22 5.01 20.81 4.83 20.38 4.67 19.93 4.67 19.93 1.61 19.32 1.61 19.32 0.67 19.13-0 18.31-0 17.36-0 17.36-0 14.64-0 14.64-0 13.69 0.67 12.86 1.61 12.68 1.61 12.68 4.67 12.06 4.67 12.06 4.83 11.62 5.01 11.19 5.21 10.77 5.21 10.77 3.47 8.17 3.47 8.17 2.95 7.38 3.05 6.32 3.72 5.65 3.72 5.65 5.65 3.72 5.65 3.72 6.04 3.34 6.55 3.14 7.06 3.14 7.45 3.14 7.83 3.25 8.17 3.47 8.17 3.47 10.78 5.21 10.78 5.21 11.19 5.01 11.62 4.83 12.06 4.67 12.06 4.67 12.68 1.61 12.68 1.61 12.87 0.67 13.69-0 14.64-0 14.64-0 17.36-0 17.36-0 18.31-0 19.13 0.67 19.32 1.61 19.32 1.61 19.93 4.67 19.93 4.67 20.38 4.83 20.81 5.01 21.22 5.21 21.22 5.21 23.83 3.47 23.83 3.47 24.17 3.25 24.55 3.14 24.94 3.14 25.45 3.14 25.96 3.34 26.35 3.72 26.35 3.72 28.28 5.65 28.28 5.65 28.95 6.32 29.05 7.38 28.53 8.17 28.53 8.17 26.79 10.77 26.79 10.77 26.99 11.19 27.17 11.62 27.33 12.06 27.33 12.06 30.39 12.68 30.39 12.68 31.33 12.86 32 13.69 32 14.64 32 14.64 32 17.36 32 17.36 32 18.31 31.33 19.13 30.39 19.32ZM 30 14.64C 30 14.64 26.93 14.02 26.93 14.02 26.24 13.89 25.67 13.39 25.44 12.72 25.31 12.35 25.16 11.99 24.99 11.65 24.68 11.01 24.73 10.26 25.13 9.67 25.13 9.67 26.86 7.06 26.86 7.06 26.86 7.06 24.94 5.14 24.94 5.14 24.94 5.14 22.33 6.87 22.33 6.87 22 7.1 21.61 7.21 21.22 7.21 20.93 7.21 20.63 7.14 20.35 7.01 20 6.84 19.65 6.69 19.28 6.56 18.61 6.33 18.11 5.76 17.97 5.07 17.97 5.07 17.36 2 17.36 2 17.36 2 14.64 2 14.64 2 14.64 2 14.03 5.07 14.03 5.07 13.89 5.76 13.39 6.33 12.72 6.56 12.35 6.69 11.99 6.84 11.65 7.01 11.37 7.14 11.07 7.21 10.78 7.21 10.39 7.21 10 7.1 9.67 6.87 9.67 6.87 7.06 5.14 7.06 5.14 7.06 5.14 5.14 7.06 5.14 7.06 5.14 7.06 6.87 9.67 6.87 9.67 7.27 10.26 7.32 11.01 7.01 11.65 6.84 11.99 6.69 12.35 6.56 12.72 6.33 13.39 5.76 13.89 5.07 14.03 5.07 14.03 2 14.64 2 14.64 2 14.64 2 17.36 2 17.36 2 17.36 5.07 17.97 5.07 17.97 5.76 18.11 6.33 18.61 6.56 19.28 6.69 19.65 6.84 20.01 7.01 20.35 7.32 20.99 7.27 21.74 6.87 22.33 6.87 22.33 5.14 24.94 5.14 24.94 5.14 24.94 7.06 26.86 7.06 26.86 7.06 26.86 9.67 25.13 9.67 25.13 10 24.9 10.39 24.79 10.78 24.79 11.07 24.79 11.37 24.86 11.65 24.99 12 25.16 12.35 25.31 12.72 25.44 13.39 25.67 13.89 26.24 14.03 26.93 14.03 26.93 14.64 30 14.64 30 14.64 30 17.36 30 17.36 30 17.36 30 17.97 26.93 17.97 26.93 18.11 26.24 18.61 25.67 19.28 25.44 19.65 25.31 20.01 25.16 20.35 24.99 20.63 24.86 20.93 24.79 21.22 24.79 21.61 24.79 22 24.9 22.33 25.13 22.33 25.13 24.94 26.86 24.94 26.86 24.94 26.86 26.86 24.94 26.86 24.94 26.86 24.94 25.13 22.33 25.13 22.33 24.73 21.74 24.68 20.99 24.99 20.35 25.16 20 25.31 19.65 25.44 19.28 25.67 18.61 26.24 18.11 26.93 17.97 26.93 17.97 30 17.36 30 17.36 30 17.36 30 14.64 30 14.64ZM 16 23C 12.13 23 9 19.86 9 16 9 12.13 12.13 9 16 9 19.87 9 23 12.13 23 16 23 19.86 19.87 23 16 23ZM 16 9.87C 12.62 9.87 9.87 12.62 9.87 16 9.87 19.38 12.62 22.12 16 22.12 19.38 22.12 22.12 19.38 22.12 16 22.12 12.62 19.38 9.87 16 9.87ZM 16 20C 13.79 20 12 18.21 12 16 12 13.79 13.79 12 16 12 18.21 12 20 13.79 20 16 20 18.21 18.21 20 16 20ZM 16 13C 14.34 13 13 14.34 13 16 13 17.66 14.34 19 16 19 17.66 19 19 17.66 19 16 19 14.34 17.66 13 16 13Z" fill="rgb(243,181,13)"/></svg>