<?xml version="1.0" encoding="utf-8"?>
<svg xmlns="http://www.w3.org/2000/svg"
	xmlns:xlink="http://www.w3.org/1999/xlink"
	width="32px" height="26px" viewBox="0 0 32 26">
<path fillRule="evenodd" d="M 29 23C 29 23 27.86 23 27.86 23 27.41 24.72 25.86 26 24 26 22.14 26 20.59 24.72 20.14 23 20.14 23 14.86 23 14.86 23 14.41 24.72 12.86 26 11 26 9.14 26 7.59 24.72 7.14 23 7.14 23 6 23 6 23 4.35 23 3 21.65 3 20 3 20 3 17 3 17 3 17 3 17 3 17 1.35 17-0 15.65-0 14-0 14-0 3-0 3-0 1.35 1.35-0 3-0 3-0 18-0 18-0 19.65-0 21 1.35 21 3 21 3 21 5 21 5 21 5 25 5 25 5 26 5 26.94 5.5 27.5 6.34 27.5 6.34 31.5 12.34 31.5 12.34 31.83 12.83 32 13.41 32 14 32 14 32 20 32 20 32 21.65 30.65 23 29 23ZM 24 24C 25.1 24 26 23.1 26 22 26 20.89 25.1 20 24 20 22.89 20 22 20.89 22 22 22 23.1 22.89 24 24 24ZM 11 24C 12.1 24 13 23.1 13 22 13 20.89 12.1 20 11 20 9.89 20 9 20.89 9 22 9 23.1 9.89 24 11 24ZM 19 7C 19 7 19 5 19 5 19 5 19 3 19 3 19 2.45 18.55 2 18 2 18 2 3 2 3 2 2.45 2 2 2.45 2 3 2 3 2 14 2 14 2 14.55 2.45 15 3 15 3 15 18 15 18 15 18.55 15 19 14.55 19 14 19 14 19 7 19 7ZM 30 14C 30 13.8 29.94 13.61 29.83 13.44 29.83 13.44 25.83 7.44 25.83 7.44 25.65 7.17 25.33 7 25 7 25 7 21 7 21 7 21 7 21 14 21 14 21 15.65 19.65 17 18 17 18 17 5 17 5 17 5 17 5 20 5 20 5 20.55 5.45 21 6 21 6 21 7.14 21 7.14 21 7.59 19.28 9.14 18 11 18 12.86 18 14.41 19.28 14.86 21 14.86 21 20.14 21 20.14 21 20.59 19.28 22.14 18 24 18 25.86 18 27.41 19.28 27.86 21 27.86 21 29 21 29 21 29.55 21 30 20.55 30 20 30 20 30 14 30 14ZM 27 16C 27 16 23 16 23 16 22.45 16 22 15.55 22 15 22 15 22 9 22 9 22 8.45 22.45 8 23 8 23 8 24 8 24 8 24.33 8 24.65 8.17 24.83 8.44 24.83 8.44 27.83 12.94 27.83 12.94 27.94 13.11 28 13.3 28 13.5 28 13.5 28 15 28 15 28 15.55 27.55 16 27 16ZM 27 13.5C 27 13.5 24 9 24 9 24 9 23 9 23 9 23 9 23 15 23 15 23 15 27 15 27 15 27 15 27 13.5 27 13.5Z" fill="rgb(243,181,13)"/></svg>